<?xml version="1.0" encoding="utf-8"?>
<!-- Generator: Adobe Illustrator 22.1.0, SVG Export Plug-In . SVG Version: 6.00 Build 0)  -->
<svg version="1.1" id="Layer_1" xmlns="http://www.w3.org/2000/svg" xmlns:xlink="http://www.w3.org/1999/xlink" x="0px" y="0px"
	 viewBox="0 0 960 235" style="enable-background:new 0 0 960 235;" xml:space="preserve">
<style type="text/css">
	.st0{fill:none;}
	.st1{fill:none;stroke:#2D2D2D;stroke-miterlimit:10;}
	.st2{font-family:'Arial-Black';}
	.st3{font-size:72px;}
	.st4{font-family:'ArialMT';}
	.st5{font-size:21px;}
	.st6{fill:#188EEF;}
	.st7{fill:#FCFCFC;}
	.st8{font-size:22px;}
	.st9{font-size:20px;}
	.st10{fill:#444443;}
	.st11{font-size:44px;}
	.st12{fill:none;stroke:#9FA894;stroke-miterlimit:10;}
	.st13{font-size:12px;}
	.st14{fill:#5B9E04;}
	.st15{font-family:'Arial-BoldMT';}
	.st16{font-size:18px;}
	.st17{fill:#146DEF;}
	.st18{font-size:110px;}
	.st19{letter-spacing:-11;}
	.st20{font-size:17px;}
	.st21{fill:#333333;}
	.st22{font-size:62px;}
</style>
<rect x="80" y="40" class="st0" width="217" height="58"/>
<text transform="matrix(1 0 0 1 80 91.5513)" class="st1 st2 st3">2017</text>
<rect x="83" y="17" class="st0" width="41" height="31"/>
<text transform="matrix(1 0 0 1 83 32.0356)" class="st4 st5">In</text>
<rect x="80" y="110" class="st0" width="206" height="29"/>
<text transform="matrix(1 0 0 1 80 125.0356)" class="st4 st5">there were </text>
<rect x="188" y="101" class="st6" width="83.3" height="32"/>
<rect x="197" y="109" class="st0" width="80" height="22"/>
<text transform="matrix(1 0 0 1 197 124.752)" class="st7 st2 st8">7,753</text>
<rect x="79" y="139" class="st0" width="206" height="23"/>
<text transform="matrix(1 0 0 1 79 154.0356)" class="st4 st5">calls related to stray </text>
<rect x="365" y="15" class="st0" width="186" height="31"/>
<text transform="matrix(1 0 0 1 365 29.3198)" class="st4 st9">Of those calls,</text>
<rect x="366" y="37" class="st10" width="189" height="54"/>
<rect x="391" y="48" class="st0" width="176" height="40"/>
<text transform="matrix(1 0 0 1 391 79.5034)" class="st7 st2 st11">1,955</text>
<line class="st12" x1="311" y1="16" x2="311" y2="207"/>
<rect x="366" y="101" class="st0" width="195" height="22"/>
<text transform="matrix(1 0 0 1 366 113.8877)"><tspan x="0" y="0" class="st4 st13">were for stray </tspan><tspan x="76" y="0" class="st14 st15 st16">dog pick-ups</tspan></text>
<rect x="365" y="123" class="st10" width="189" height="54"/>
<rect x="390" y="134" class="st0" width="176" height="40"/>
<text transform="matrix(1 0 0 1 390 165.5034)" class="st7 st2 st11">5,798</text>
<rect x="367" y="188" class="st0" width="199" height="22"/>
<text transform="matrix(1 0 0 1 367 200.8877)"><tspan x="0" y="0" class="st4 st13">were for stray </tspan><tspan x="76" y="0" class="st17 st15 st16">dog at large</tspan></text>
<line class="st12" x1="608.5" y1="16" x2="608.5" y2="207"/>
<rect x="655" y="76.3" class="st0" width="140" height="102.7"/>
<text transform="matrix(1 0 0 1 655 155.0737)" class="st6 st2 st18 st19">18</text>
<rect x="646" y="23" class="st0" width="226" height="47"/>
<text transform="matrix(1 0 0 1 646 35.1719)"><tspan x="0" y="0" class="st4 st20">The number of stray dog calls </tspan><tspan x="0" y="20.4" class="st4 st20">has declined by</tspan></text>
<rect x="646" y="172" class="st0" width="226" height="47"/>
<text transform="matrix(1 0 0 1 646 186.3198)"><tspan x="0" y="0" class="st4 st20">between</tspan><tspan x="64.3" y="0" class="st21 st4 st9"> </tspan><tspan x="69.8" y="0" class="st21 st2 st9">2016</tspan><tspan x="123.2" y="0" class="st2 st20"> </tspan><tspan x="128.9" y="0" class="st4 st20">and</tspan><tspan x="157.2" y="0" class="st4 st9"> </tspan><tspan x="162.8" y="0" class="st21 st2 st9">2017</tspan><tspan x="216.1" y="0" class="st4 st9">.</tspan></text>
<rect x="79" y="169" class="st0" width="187" height="30"/>
<text transform="matrix(1 0 0 1 79 184.0356)" class="st4 st5">dogs.</text>
<rect x="789" y="76" class="st0" width="59" height="56"/>
<text transform="matrix(1 0 0 1 789 120.3916)" class="st6 st4 st22">%</text>
</svg>
