<?xml version="1.0" encoding="utf-8"?>
<!-- Generator: Adobe Illustrator 22.1.0, SVG Export Plug-In . SVG Version: 6.00 Build 0)  -->
<svg version="1.1" id="Layer_1" xmlns="http://www.w3.org/2000/svg" xmlns:xlink="http://www.w3.org/1999/xlink" x="0px" y="0px"
	 viewBox="0 0 1024 741" style="enable-background:new 0 0 1024 741;" xml:space="preserve">
<style type="text/css">
	.st0{fill:#5AA4ED;}
	.st1{fill:#A7F459;}
	.st2{fill:none;}
	.st3{fill:#040005;}
	.st4{font-family:'Capitolium2-Bold';}
	.st5{font-size:62.5px;}
	.st6{fill:#FFFFFF;}
</style>
<g id="Layer_2_1_">
	<rect y="-27" class="st0" width="1024" height="768"/>
	
		<image style="overflow:visible;opacity:7.000000e-02;enable-background:new    ;" width="1920" height="1080" xlink:href="A18258C09A596BA7.jpeg"  transform="matrix(0.7103 0 0 0.7103 -17 -27)">
	</image>
</g>
<g id="Layer_1_1_">
	<g>
		<path d="M330,218.5c7.7-14.9,19.9-26,32.4-36.4c10.8-9.1,13.8-20.5,12.9-33.3c-0.5-7.7,1.9-13.7,7-18.8
			c14.6-14.5,30.9-26.8,50.1-34.5c6.9-2.7,14.6-3.6,22-4.8c4.8-0.8,9.7-0.6,14.5-0.9c11.4-0.6,21.2,3.4,29.9,10.4
			c2.5,2,5.1,3.8,7.6,5.7c4.8,3.8,10.3,5.5,16.5,5.5c8.5-0.1,16.8,1.2,24.7,4.6c9.1,3.9,17,9.2,20.5,19.1c1.5,4.2,0.8,8.2-0.8,12.2
			c-1.1,3-2.1,6-2.8,9.1c-0.6,2.7-0.1,5.3,1.8,7.6c4.9,5.7,9.5,11.6,14.8,16.9c1.8,1.8,5.2,2.5,7.9,2.6c16,0.8,32,1.2,48,1.9
			c10.2,0.5,20.3,1,30.5,1.9c5.8,0.5,11.6,1.5,17.3-0.1c6.4-1.8,12.7-3.6,19.1-5.6c11.4-3.6,22.8-7.3,34.2-10.9
			c5.6-1.8,11.2-3.5,16.9-5.1c5.3-1.5,10.6-3,15.9-4.2c7-1.6,13.9-3.1,20.9-4.4c5.2-1,10.5-1.8,15.8-2.5c23-3,46.1-5.3,69.3-4.5
			c16.8,0.6,33.2,3.3,48.7,10.7c7.1,3.4,14.8,5.4,22.4,7.4c7.3,1.9,13.7-1.4,19.7-5c9.1-5.5,14.9-14,20.6-22.6
			c4.6-7,8.2-14.3,8.4-22.8c0.6-20.3-6.1-37.7-22.5-50.2c-9.1-7-20.2-8.9-31.4-6c-4.3,1.1-8.2,4.1-12,6.7c-2.7,1.9-3,4.7-1.2,7.4
			c1.3,2.1,2.9,4.2,4.9,5.5c6.1,4,8.9,10.2,11.8,16.4c0.8,1.7,1.4,3.6,2,5.4c1.2,4.1,0.3,7.6-2.7,10.6c-2.9,2.9-6.1,2.7-9.6,1.3
			c-11.7-4.7-22.4-11-31.2-20c-6-6.1-9.9-13.8-8.3-22.8c1.3-7.6,4.8-14.4,9.4-20.5c8.6-11.4,19.8-18.9,33.7-22.2
			c6.6-1.5,13.1-3.5,20-2.1c11.7,2.4,23.2,5.2,33.3,11.8c15.8,10.4,28.3,23.8,35.4,41.5c5.2,12.9,6.7,26.4,4.5,40.2
			c-1.2,7.6-3,15.1-5,22.5c-1.8,6.7-5.1,12.8-8.9,18.7c-9.4,14.7-20.1,28.5-32.4,40.9c-4.5,4.5-4.3,7.9-1.1,12.6
			c3,4.6,6.4,8.9,10,13c5.8,6.6,9.1,14.5,11.3,22.8c1.7,6.4,3,13,3.9,19.5c0.7,5.4,1,10.8,0.7,16.2c-0.5,9.4-1.3,18.8-2.4,28.1
			c-1.1,8.7-2.8,17.4-4.2,26c-1.7,9.7-3.5,19.4-5.1,29.1c-2,13-4,26.1-5.5,39.1c-1.6,13.4,0.5,26.5,4.2,39.4c2,6.9,3.7,13.8,6,20.5
			c3.9,11.7,10.1,22.3,17.1,32.3c4,5.8,8.6,11.1,12.9,16.7c2.3,3,4.7,5.9,6.4,9.2c0.9,1.7,0.6,4.2,0.4,6.3c-0.2,2.3-1.3,4.5-1.4,6.8
			c-0.9,24.8-1.7,49.7-2.4,74.5c-0.2,6.2-0.1,12.4,0.1,18.6c0.2,5.4,0.6,10.8,1,16.2c0.4,6.4-0.1,12.6-2.2,18.9
			c-2.6,7.8-5.9,14.9-11.7,20.9c-2.2,2.2-3.5,5.2-5.6,7.6c-4,4.4-9.1,5-14.3,3c-1.5-0.6-3-2.8-3.4-4.5c-1.4-5.4-2.7-10.9-3.1-16.4
			c-0.3-4.1,0.5-8.3,1.2-12.3c1.3-6.9,3-13.8,4.2-20.7c1.6-8.7,3.6-17.3,4.1-26c0.6-11.2,0.8-22.5-0.4-33.6
			c-2.8-25-14.2-47-25.8-68.8c-1.7-3.2-4.2-6-6.4-8.8c-6.3-8.1-12.6-16.3-18.9-24.4c-1.5-2-3.3-3.8-5.1-5.5c-0.8-0.7-2.2-0.7-3.3-1
			c-0.2,1.2-0.9,2.6-0.6,3.7c0.9,3.4,2.1,6.8,3.3,10.2c4.1,10.8,8.1,21.7,12.5,32.4c2.9,7.1,6.3,14,9.6,21
			c2.5,5.4,1.9,10.8,0.7,16.5c-2.1,9.6-4.1,19.3-5.5,29c-1.3,8.7-1.5,17.6-2.6,26.3c-0.6,4.9-2.1,9.8-3.3,14.7c-1.4,6-2.9,12-4.1,18
			c-1.8,8.9-3.4,17.8-5.1,26.8c-0.2,1.1-0.5,2.3-0.8,3.4c-2,7.9-7.2,12-15.2,12c-7.8,0-15.7-0.3-23.5-0.9c-4.8-0.4-7.3-4.1-6.3-8.9
			c0.8-4.1,2-8.1,2.9-12.1c1.1-4.6,4.6-6.7,8.6-7.7c9.8-2.4,13.6-10.2,15.5-18.5c1.8-7.9,1.6-16.3,2.2-24.6
			c0.9-14.2-1.4-28-3.9-41.9c-1.8-10.1-3.3-20.3-4.6-30.4c-1.1-8.3-4.2-15.8-8.1-23c-6-11-12.7-21.6-18.5-32.6
			c-6.3-12-11.1-24.6-14.8-37.6c-2.3-8.3-5.5-16.4-8.4-24.6c-4.1-11.4-8.4-22.8-12.3-34.3c-2-6-3.5-12.2-4.6-18.5
			c-1.3-7.9,1.4-15.3,3.8-22.7c1.2-3.7-0.3-7.1-3.5-8.4c-3.3-1.3-6.1,0-7.7,3.9c-1.9,4.3-3.4,8.8-5.5,13c-1.5,3-3.6,6.3-7.6,6.2
			c-3.9-0.2-6-3.2-7.6-6.3c-2.4-4.8-5.6-8.8-10.8-10.2c-3.6-1-7.8-1.3-11.4-0.5c-7.9,1.6-15.7,3.8-23.4,6.3
			c-12.7,4.2-22.3,12.9-30,23.6c-14.8,20.6-33.6,36.7-54.4,50.7c-2.4,1.6-5,3.3-7.1,5.3c-2.4,2.3-2.8,5.4-1.1,8.3
			c4.8,7.9,3.5,15.9,1.3,24.2c-1.8,6.5-3.3,13.1-4.9,19.7c-0.2,0.6-0.1,1.4-0.1,2c0.5,17.9,0.9,35.9,1.5,53.8
			c0.5,15.6,0.9,31.2,1.8,46.8c0.8,13.7,2.3,27.4,3.7,41.1c0.5,4.6,1.8,9.1,2.9,13.6c1.9,7.2-0.8,13.3-3.4,19.8
			c-2.5,6.4-4.6,13.2-5.5,20c-1.7,13.4-2.5,27-3.7,40.5c-0.3,3.4-1,6.9-1.7,10.3c-0.9,4.4-4.3,6.7-8.2,7c-13.1,1-26.3,1.6-39.5,2
			c-2.4,0.1-5.3-1.3-7.4-2.8c-4.9-3.5-5.6-7.4-3-12.9c3.5-7.5,8.7-13.8,15.5-18.3c9.2-6,13.9-14.1,15.6-24.7
			c1.9-12,3.2-24.2,1.7-36.2c-2-15.3-1.3-30.6-2.4-45.9c-1.4-19.6-3.3-39.2-5.7-58.8c-1.4-11.3-4.1-22.4-6.5-33.6
			c-1.5-6.9-2.7-14.2-5.6-20.6c-3.5-7.7-8.3-14.9-13.2-21.9c-8.3-11.9-18.8-21.6-30.1-30.6c-0.3-0.2-0.6-0.4-1-0.6
			c-5.1-3.6-7-1.3-8.3,2.9c-2.5,8-2.6,16.1,0.2,24c1.2,3.5,1.1,6.5-0.8,9.4c-4.8,7.2-9.9,14.2-14.5,21.5
			c-6.1,9.7-11.8,19.6-17.7,29.4c-4.3,7.1-8.6,14.1-13.2,21.1c-6.9,10.6-14.1,21.1-21.1,31.7c-8.2,12.5-16.4,24.9-24.2,37.6
			c-4.9,7.9-7.8,16.4-6.8,26.1c0.6,5.4-2.6,8.3-7.9,9.7c-1.8,0.4-3.9,2.1-4.6,3.7c-2.3,5.2-3.9,10.6-6.1,15.9
			c-1.9,4.6-3.9,9.2-6.7,13.3c-2.9,4.3-4.1,9-4.7,13.8c-0.6,4.6-1.9,8.9-5,12.4c-7.3,8.5-14.6,16.9-21.9,25.3
			c-1.1,1.2-2.5,2.1-3.8,3.1c-4.2,3-8.8,3.9-13.8,2c-4.8-1.9-9.2-4.6-12.5-8.6c-4.3-5.1-4.6-12,0.3-18.1
			c4.7-5.9,10.2-11.2,15.7-16.4c9.8-9,18.4-19,23.5-31.4c2.2-5.5,3.8-11.3,5.3-17.1c2.7-10.7,5.3-21.5,10.2-31.5
			c3.1-6.3,6.1-12.7,9.2-19c6.5-13.1,12.8-26.3,19.5-39.3c7.4-14.3,12.9-29.2,18.3-44.3c4.3-11.9,8.8-23.6,12.5-35.7
			c1.8-5.8,2-12.2,2.3-18.3c0.3-5.3-0.5-10.7-0.6-16c-0.1-7.2-3-13.7-5.3-20.3c-4.4-12.9-9.3-25.8-13-38.9
			c-3.2-11.6-3.1-23.8-3.8-35.8c-0.2-4.6-0.4-9.1-0.2-13.7c0.3-5.2-1.2-9.6-4.2-13.8c-5.1-6.9-9.8-14-14.9-20.9
			c-3.1-4.1-5-8.5-4.2-13.7c0.9-6.1-0.7-11.4-4.1-16.4c-1.3-1.9-2-4.2-3.3-6.1c-1.2-1.7-2.5-3.4-4.1-4.7c-6.1-4.5-12.7-8.2-20.1-9.9
			c-2.4-0.5-5.6,0.2-7.6,1.5c-4.7,3-8.9,6.7-13.2,10.2c-7.6,6.1-14.9,12.9-24.4,15.7c-6,1.8-12.6,1.9-18.9,1.8
			c-4.8,0-7-5.5-4.8-10.2c2-4.2,6-5.5,9.9-6.9c4.7-1.8,9.3-3.9,11.8-8.6c1.5-2.8,1-4.1-2.1-4.4c-5.2-0.5-10.4-0.7-15.7-0.8
			c-19.5-0.5-33.6-10.2-44.5-25.5c-0.7-0.9-1.4-1.7-2.1-2.6C330,221.6,330,220,330,218.5z M570.4,418.8c2-1.2,4.3-1.8,4.9-3.1
			c0.7-1.7,0.8-4.5-0.2-6c-1.9-2.9-4.6-5.4-7.3-7.7c-5.9-5.1-11.8-10.1-18.1-14.8c-3.5-2.6-7.2-1.1-8.8,3c-2,5-0.3,10,4.4,13
			c5.2,3.4,10.3,7,15.6,10.4C563.8,415.5,567,417,570.4,418.8z"/>
	</g>
	<rect x="1" y="77" class="st1" width="231" height="75"/>
	<rect y="138" class="st1" width="210" height="75"/>
	<rect y="188" class="st1" width="141" height="75"/>
	<rect y="249" class="st1" width="253" height="75"/>
	<rect y="308" class="st1" width="214" height="75"/>
	<rect y="372" class="st1" width="286" height="75"/>
	<rect x="55" y="85" class="st2" width="212" height="365"/>
	<text transform="matrix(1 0 0 1 55 130.562)" class="st3 st4 st5">Stray</text>
	<text transform="matrix(1 0 0 1 55 188.862)" class="st3 st4 st5">Dogs</text>
	<text transform="matrix(1 0 0 1 55 247.262)" class="st3 st4 st5">in</text>
	<text transform="matrix(1 0 0 1 55 305.562)" class="st3 st4 st5">Miami</text>
	<text transform="matrix(1 0 0 1 55 363.862)" class="st3 st4 st5">Dade</text>
	<text transform="matrix(1 0 0 1 55 422.262)" class="st3 st4 st5">County</text>
	<g>
		<g>
			<path class="st6" d="M53.5,479.5h-3.4v-0.9h7.8v0.9h-3.4v9.3h-1.1v-9.3H53.5z"/>
			<path class="st6" d="M60.1,478v4.6c0.4-0.7,1.1-1.3,2.4-1.3c1.1,0,2.5,0.6,2.5,2.8v4.7h-1v-4.5c0-1.4-0.6-2.1-1.8-2.1
				c-1.4,0-2.1,0.9-2.1,2.6v4.1h-1V478H60.1z"/>
			<path class="st6" d="M67.7,485.2c0,1.7,0.9,2.8,2.2,2.8c1.3,0,1.7-0.7,2-1.3h1c-0.3,1-1.1,2.1-3,2.1c-2.3,0-3.2-1.9-3.2-3.8
				c0-2.1,1.1-3.9,3.3-3.9c2.3,0,3.1,1.9,3.1,3.4c0,0.2,0,0.4,0,0.6L67.7,485.2L67.7,485.2z M72,484.5c0-1.3-0.7-2.4-2.1-2.4
				s-2,1-2.2,2.4H72z"/>
			<path class="st6" d="M75,486.7c0.2,0.9,0.9,1.4,2,1.4c1.2,0,1.7-0.5,1.7-1.3s-0.3-1.1-1.9-1.5c-2-0.5-2.4-1.1-2.4-2.1
				s0.8-2,2.5-2c1.8,0,2.6,1.1,2.7,2.1h-1c-0.1-0.6-0.5-1.3-1.7-1.3s-1.5,0.6-1.5,1.1c0,0.6,0.3,0.9,1.7,1.3
				c2.1,0.5,2.6,1.2,2.6,2.3c0,1.3-1.1,2.2-2.7,2.2c-1.8,0-2.7-0.9-2.9-2.2H75z"/>
			<path class="st6" d="M81.8,485.2c0,1.7,0.9,2.8,2.2,2.8c1.3,0,1.7-0.7,2-1.3h1c-0.3,1-1.1,2.1-3,2.1c-2.3,0-3.2-1.9-3.2-3.8
				c0-2.1,1.1-3.9,3.3-3.9c2.3,0,3.1,1.9,3.1,3.4c0,0.2,0,0.4,0,0.6L81.8,485.2L81.8,485.2z M86.1,484.5c0-1.3-0.7-2.4-2.1-2.4
				s-2,1-2.2,2.4H86.1z"/>
			<path class="st6" d="M97.8,487.2c0,0.7,0.1,1.3,0.1,1.5H97c-0.1-0.2-0.1-0.5-0.1-1.1c-0.3,0.5-0.9,1.2-2.3,1.2
				c-1.7,0-2.5-1.1-2.5-2.2c0-1.6,1.3-2.4,3.5-2.4c0.6,0,1,0,1.3,0v-0.7c0-0.7-0.2-1.6-1.8-1.6c-1.4,0-1.6,0.7-1.7,1.3h-1
				c0.1-0.9,0.6-2.1,2.7-2.1c1.7,0,2.7,0.7,2.7,2.4C97.8,483.5,97.8,487.2,97.8,487.2z M96.9,485.1c-0.3,0-0.9,0-1.3,0
				c-1.6,0-2.5,0.4-2.5,1.6c0,0.9,0.6,1.4,1.6,1.4c1.9,0,2.2-1.3,2.2-2.8C96.9,485.3,96.9,485.1,96.9,485.1z"/>
			<path class="st6" d="M100.1,483.4c0-1.1,0-1.7,0-2h1c0,0.2,0,0.7,0,1.6c0.4-1.1,1.3-1.7,2.5-1.8v1c-1.5,0.1-2.5,1-2.5,2.8v3.7h-1
				V483.4z"/>
			<path class="st6" d="M105.5,485.2c0,1.7,0.9,2.8,2.2,2.8c1.3,0,1.7-0.7,2-1.3h1c-0.3,1-1.1,2.1-3,2.1c-2.3,0-3.2-1.9-3.2-3.8
				c0-2.1,1.1-3.9,3.3-3.9c2.3,0,3.1,1.9,3.1,3.4c0,0.2,0,0.4,0,0.6L105.5,485.2L105.5,485.2z M109.8,484.5c0-1.3-0.7-2.4-2.1-2.4
				s-2,1-2.2,2.4H109.8z"/>
			<path class="st6" d="M115.2,481.4h1.3v-2.2h1v2.2h1.7v0.8h-1.7v4.6c0,0.8,0.2,1.2,0.9,1.2c0.2,0,0.5,0,0.7-0.1v0.8
				c-0.3,0.1-0.7,0.1-1,0.1c-1,0-1.5-0.5-1.5-1.7v-4.9h-1.3L115.2,481.4L115.2,481.4z"/>
			<path class="st6" d="M121.6,478v4.6c0.4-0.7,1.1-1.3,2.4-1.3c1.1,0,2.5,0.6,2.5,2.8v4.7h-1v-4.5c0-1.4-0.6-2.1-1.8-2.1
				c-1.4,0-2.1,0.9-2.1,2.6v4.1h-1V478H121.6z"/>
			<path class="st6" d="M129.2,485.2c0,1.7,0.9,2.8,2.2,2.8s1.7-0.7,2-1.3h1c-0.3,1-1.1,2.1-3,2.1c-2.3,0-3.2-1.9-3.2-3.8
				c0-2.1,1.1-3.9,3.3-3.9c2.3,0,3.1,1.9,3.1,3.4c0,0.2,0,0.4,0,0.6L129.2,485.2L129.2,485.2z M133.5,484.5c0-1.3-0.7-2.4-2.1-2.4
				c-1.4,0-2,1-2.2,2.4H133.5z"/>
			<path class="st6" d="M145.5,486.5c-0.3,1.3-1.2,2.4-2.9,2.4c-1.9,0-3.2-1.4-3.2-3.8c0-2,1.1-3.9,3.3-3.9c2,0,2.7,1.4,2.8,2.4h-1
				c-0.2-0.8-0.7-1.5-1.9-1.5c-1.4,0-2.3,1.2-2.3,3c0,1.7,0.8,3,2.2,3c1,0,1.6-0.5,1.9-1.5h1.1V486.5z"/>
			<path class="st6" d="M152.4,487.2c0,0.7,0.1,1.3,0.1,1.5h-0.9c-0.1-0.2-0.1-0.5-0.1-1.1c-0.3,0.5-0.9,1.2-2.3,1.2
				c-1.7,0-2.5-1.1-2.5-2.2c0-1.6,1.3-2.4,3.5-2.4c0.6,0,1,0,1.3,0v-0.7c0-0.7-0.2-1.6-1.8-1.6c-1.4,0-1.6,0.7-1.7,1.3h-1
				c0.1-0.9,0.6-2.1,2.7-2.1c1.7,0,2.7,0.7,2.7,2.4V487.2z M151.4,485.1c-0.3,0-0.9,0-1.3,0c-1.6,0-2.5,0.4-2.5,1.6
				c0,0.9,0.6,1.4,1.6,1.4c1.9,0,2.2-1.3,2.2-2.8V485.1z"/>
			<path class="st6" d="M154.7,488.7V478h1v10.7H154.7z"/>
			<path class="st6" d="M158,488.7V478h1v10.7H158z"/>
			<path class="st6" d="M161.5,486.7c0.2,0.9,0.9,1.4,2,1.4c1.2,0,1.7-0.5,1.7-1.3s-0.3-1.1-1.9-1.5c-2-0.5-2.4-1.1-2.4-2.1
				s0.8-2,2.5-2c1.8,0,2.6,1.1,2.7,2.1h-1c-0.1-0.6-0.5-1.3-1.7-1.3s-1.5,0.6-1.5,1.1c0,0.6,0.3,0.9,1.7,1.3
				c2.1,0.5,2.6,1.2,2.6,2.3c0,1.3-1.1,2.2-2.7,2.2c-1.8,0-2.7-0.9-2.9-2.2H161.5z"/>
			<path class="st6" d="M171.7,483.4c0-1.1,0-1.7,0-2h1c0,0.2,0,0.7,0,1.6c0.4-1.1,1.3-1.7,2.5-1.8v1c-1.5,0.1-2.5,1-2.5,2.8v3.7h-1
				V483.4z"/>
			<path class="st6" d="M177,485.2c0,1.7,0.9,2.8,2.2,2.8s1.7-0.7,2-1.3h1c-0.3,1-1.1,2.1-3,2.1c-2.3,0-3.2-1.9-3.2-3.8
				c0-2.1,1.1-3.9,3.3-3.9c2.3,0,3.1,1.9,3.1,3.4c0,0.2,0,0.4,0,0.6L177,485.2L177,485.2z M181.3,484.5c0-1.3-0.7-2.4-2.1-2.4
				c-1.4,0-2,1-2.2,2.4H181.3z"/>
			<path class="st6" d="M185,487.7v3.9h-1v-8.5c0-0.6,0-1.2,0-1.8h1c0,0.3,0,0.7,0,1.2c0.4-0.8,1.2-1.4,2.5-1.4
				c1.7,0,2.9,1.4,2.9,3.7c0,2.6-1.4,4-3.2,4C186,488.9,185.4,488.4,185,487.7z M189.4,484.9c0-1.6-0.8-2.8-2.1-2.8
				c-1.7,0-2.3,1-2.3,2.9s0.5,3,2.2,3C188.6,488,189.4,486.8,189.4,484.9z"/>
			<path class="st6" d="M198.3,485c0,2.1-1.2,3.9-3.4,3.9c-2,0-3.3-1.6-3.3-3.8c0-2.1,1.2-3.8,3.4-3.8
				C197,481.2,198.3,482.7,198.3,485z M192.7,485.1c0,1.7,0.9,3,2.3,3c1.5,0,2.3-1.2,2.3-3c0-1.7-0.8-3-2.3-3
				C193.4,482.1,192.7,483.3,192.7,485.1z"/>
			<path class="st6" d="M200.1,483.4c0-1.1,0-1.7,0-2h1c0,0.2,0,0.7,0,1.6c0.4-1.1,1.3-1.7,2.5-1.8v1c-1.5,0.1-2.5,1-2.5,2.8v3.7h-1
				V483.4z"/>
			<path class="st6" d="M203.9,481.4h1.3v-2.2h1v2.2h1.7v0.8h-1.7v4.6c0,0.8,0.2,1.2,0.9,1.2c0.2,0,0.5,0,0.7-0.1v0.8
				c-0.3,0.1-0.7,0.1-1,0.1c-1,0-1.5-0.5-1.5-1.7v-4.9H204L203.9,481.4L203.9,481.4z"/>
			<path class="st6" d="M209.8,485.2c0,1.7,0.9,2.8,2.2,2.8s1.7-0.7,2-1.3h1c-0.3,1-1.1,2.1-3,2.1c-2.3,0-3.2-1.9-3.2-3.8
				c0-2.1,1.1-3.9,3.3-3.9c2.3,0,3.1,1.9,3.1,3.4c0,0.2,0,0.4,0,0.6L209.8,485.2L209.8,485.2z M214.1,484.5c0-1.3-0.7-2.4-2.1-2.4
				c-1.4,0-2,1-2.2,2.4H214.1z"/>
			<path class="st6" d="M222.7,478v8.6c0,0.7,0,1.4,0,2.1h-0.9c0-0.2-0.1-0.8-0.1-1.1c-0.4,0.8-1.2,1.3-2.4,1.3
				c-1.9,0-3.1-1.5-3.1-3.8s1.2-3.9,3.3-3.9c1.4,0,2,0.6,2.2,1V478H222.7z M217.3,485.1c0,1.9,1,2.9,2.2,2.9c1.8,0,2.3-1.3,2.3-3.1
				c0-1.8-0.4-2.8-2.2-2.8C218.2,482.1,217.3,483.2,217.3,485.1z"/>
			<path class="st6" d="M227.7,481.4h1.3v-2.2h1v2.2h1.7v0.8H230v4.6c0,0.8,0.2,1.2,0.9,1.2c0.2,0,0.5,0,0.7-0.1v0.8
				c-0.3,0.1-0.7,0.1-1,0.1c-1,0-1.5-0.5-1.5-1.7v-4.9h-1.3L227.7,481.4L227.7,481.4z"/>
			<path class="st6" d="M239.3,485c0,2.1-1.2,3.9-3.4,3.9c-2,0-3.3-1.6-3.3-3.8c0-2.1,1.2-3.8,3.4-3.8
				C238,481.2,239.3,482.7,239.3,485z M233.6,485.1c0,1.7,0.9,3,2.3,3c1.5,0,2.3-1.2,2.3-3c0-1.7-0.8-3-2.3-3
				C234.4,482.1,233.6,483.3,233.6,485.1z"/>
			<path class="st6" d="M243.7,481.4h1.3v-2.2h1v2.2h1.7v0.8H246v4.6c0,0.8,0.2,1.2,0.9,1.2c0.2,0,0.5,0,0.7-0.1v0.8
				c-0.3,0.1-0.7,0.1-1,0.1c-1,0-1.5-0.5-1.5-1.7v-4.9h-1.3L243.7,481.4L243.7,481.4z"/>
			<path class="st6" d="M250.1,478v4.6c0.4-0.7,1.1-1.3,2.4-1.3c1.1,0,2.5,0.6,2.5,2.8v4.7h-1v-4.5c0-1.4-0.6-2.1-1.8-2.1
				c-1.4,0-2.1,0.9-2.1,2.6v4.1h-1V478H250.1z"/>
			<path class="st6" d="M257.7,485.2c0,1.7,0.9,2.8,2.2,2.8c1.3,0,1.7-0.7,2-1.3h1c-0.3,1-1.1,2.1-3,2.1c-2.3,0-3.2-1.9-3.2-3.8
				c0-2.1,1.1-3.9,3.3-3.9c2.3,0,3.1,1.9,3.1,3.4c0,0.2,0,0.4,0,0.6L257.7,485.2L257.7,485.2z M262,484.5c0-1.3-0.7-2.4-2.1-2.4
				s-2,1-2.2,2.4H262z"/>
			<path class="st6" d="M60.2,507.1c0-1.9,0-3.9,0.1-4.9l0,0c-0.4,1.5-2.3,6.2-3.5,9.4h-1c-0.9-2.5-2.9-7.8-3.3-9.4l0,0
				c0.1,1.2,0.1,3.5,0.1,5.2v4.2h-1v-10.2h1.6c1.3,3.3,2.9,7.7,3.3,8.9l0,0c0.2-0.8,2.1-5.7,3.4-8.9h1.5v10.2h-1v-4.5H60.2z"/>
			<path class="st6" d="M64,501.5h3.5c2.8,0,4.8,1.9,4.8,5c0,3-1.9,5.2-4.8,5.2H64V501.5z M65,510.7h2.3c2.6,0,3.8-1.8,3.8-4.2
				c0-2.1-1.1-4.1-3.8-4.1H65V510.7z"/>
			<path class="st6" d="M82.2,508.8c-0.5,1.7-1.7,2.9-3.9,2.9c-3,0-4.5-2.3-4.5-5.2c0-2.8,1.5-5.3,4.5-5.3c2.3,0,3.6,1.3,3.9,3h-1
				c-0.4-1.2-1.2-2.1-2.9-2.1c-2.4,0-3.4,2.2-3.4,4.3c0,2.1,1,4.3,3.5,4.3c1.6,0,2.4-0.9,2.8-2h1V508.8z"/>
			<path class="st6" d="M87.7,504.3c0.2-1.2,1-2.4,2.9-2.4s2.8,1.2,2.8,2.4c0,1.2-0.7,1.8-1.3,2l0,0c0.9,0.3,1.7,1,1.7,2.5
				c0,1.6-1,3-3.2,3c-2.1,0-3-1.3-3.2-2.6h1c0.2,0.9,0.9,1.7,2.3,1.7c1.5,0,2.1-1,2.1-2.1c0-1.4-0.9-2-2.3-2h-0.6V506h0.5
				c1.4,0,2-0.6,2-1.6c0-0.9-0.6-1.6-1.8-1.6c-1.2,0-1.7,0.6-1.9,1.5H87.7z"/>
			<path class="st6" d="M97.2,511.6v-8.4c-0.5,0.4-1.5,0.9-2.1,1v-0.8c0.7-0.2,1.6-0.8,2.3-1.4h0.8v9.7h-1V511.6z"/>
			<path class="st6" d="M102.4,511.6v-8.4c-0.5,0.4-1.5,0.9-2.1,1v-0.8c0.7-0.2,1.6-0.8,2.3-1.4h0.8v9.7h-1V511.6z"/>
			<path class="st6" d="M110,509.6c0.2,0.9,0.9,1.4,2,1.4c1.2,0,1.7-0.5,1.7-1.3s-0.3-1.1-1.9-1.5c-2-0.5-2.4-1.1-2.4-2.1
				s0.8-2,2.5-2c1.8,0,2.6,1.1,2.7,2.1h-1c-0.1-0.6-0.5-1.3-1.7-1.3s-1.5,0.6-1.5,1.1c0,0.6,0.3,0.9,1.7,1.3
				c2.1,0.5,2.6,1.2,2.6,2.3c0,1.3-1.1,2.2-2.7,2.2c-1.8,0-2.7-0.9-2.9-2.2H110z"/>
			<path class="st6" d="M116.5,504.3c1.3,3.9,2,5.7,2.2,6.5l0,0c0.3-0.9,0.8-2.6,2.1-6.5h1l-2.7,7.7c-0.8,2.2-1.3,2.7-2.7,2.7
				c-0.2,0-0.5,0-0.7,0v-0.9c0.2,0,0.4,0,0.6,0c1,0,1.3-0.5,1.8-1.8l-2.8-7.6h1.2V504.3z"/>
			<path class="st6" d="M123.5,509.6c0.2,0.9,0.9,1.4,2,1.4c1.2,0,1.7-0.5,1.7-1.3s-0.3-1.1-1.9-1.5c-2-0.5-2.4-1.1-2.4-2.1
				s0.8-2,2.5-2c1.8,0,2.6,1.1,2.7,2.1h-1c-0.1-0.6-0.5-1.3-1.7-1.3s-1.5,0.6-1.5,1.1c0,0.6,0.3,0.9,1.7,1.3
				c2.1,0.5,2.6,1.2,2.6,2.3c0,1.3-1.1,2.2-2.7,2.2c-1.8,0-2.7-0.9-2.9-2.2H123.5z"/>
			<path class="st6" d="M128.9,504.3h1.3v-2.2h1v2.2h1.7v0.8h-1.7v4.6c0,0.8,0.2,1.2,0.9,1.2c0.2,0,0.5,0,0.7-0.1v0.8
				c-0.3,0.1-0.7,0.1-1,0.1c-1,0-1.5-0.5-1.5-1.7v-4.9H129L128.9,504.3L128.9,504.3z"/>
			<path class="st6" d="M134.7,508.1c0,1.7,0.9,2.8,2.2,2.8s1.7-0.7,2-1.3h1c-0.3,1-1.1,2.1-3,2.1c-2.3,0-3.2-1.9-3.2-3.8
				c0-2.1,1.1-3.9,3.3-3.9c2.3,0,3.1,1.9,3.1,3.4c0,0.2,0,0.4,0,0.6L134.7,508.1L134.7,508.1z M139,507.4c0-1.3-0.7-2.4-2.1-2.4
				c-1.4,0-2,1-2.2,2.4H139z"/>
			<path class="st6" d="M141.8,506.2c0-0.6,0-1.3,0-1.9h0.9c0,0.2,0,0.8,0,1.2c0.3-0.7,1-1.4,2.2-1.4c1,0,1.8,0.5,2.1,1.4
				c0.4-0.7,1.1-1.4,2.4-1.4c1.2,0,2.3,0.7,2.3,2.7v4.8h-1v-4.7c0-0.9-0.3-1.9-1.6-1.9s-1.9,1-1.9,2.4v4.2h-1V507
				c0-1-0.3-1.9-1.6-1.9s-1.9,1.1-1.9,2.6v4h-1v-5.5H141.8z"/>
			<path class="st6" d="M165.8,508.8c-0.5,1.7-1.7,2.9-3.9,2.9c-3,0-4.5-2.3-4.5-5.2c0-2.8,1.5-5.3,4.5-5.3c2.3,0,3.6,1.3,3.9,3h-1
				c-0.4-1.2-1.2-2.1-2.9-2.1c-2.4,0-3.4,2.2-3.4,4.3c0,2.1,1,4.3,3.5,4.3c1.6,0,2.4-0.9,2.8-2h1V508.8z"/>
			<path class="st6" d="M173.7,508c0,2.1-1.2,3.9-3.4,3.9c-2,0-3.3-1.6-3.3-3.8c0-2.1,1.2-3.8,3.4-3.8
				C172.4,504.1,173.7,505.7,173.7,508z M168,508c0,1.7,0.9,3,2.3,3c1.5,0,2.3-1.2,2.3-3c0-1.7-0.8-3-2.3-3S168,506.3,168,508z"/>
			<path class="st6" d="M175.4,506.2c0-0.6,0-1.3,0-1.8h1c0,0.2,0,1.1,0,1.3c0.3-0.7,0.9-1.5,2.4-1.5c1.3,0,2.5,0.8,2.5,2.8v4.7h-1
				V507c0-1.2-0.5-2-1.7-2c-1.6,0-2.2,1.3-2.2,2.8v3.8h-1V506.2z"/>
			<path class="st6" d="M182.5,504.3h1.3v-2.2h1v2.2h1.7v0.8h-1.7v4.6c0,0.8,0.2,1.2,0.9,1.2c0.2,0,0.5,0,0.7-0.1v0.8
				c-0.3,0.1-0.7,0.1-1,0.1c-1,0-1.5-0.5-1.5-1.7v-4.9h-1.3L182.5,504.3L182.5,504.3z"/>
			<path class="st6" d="M193.2,510.2c0,0.7,0.1,1.3,0.1,1.5h-0.9c-0.1-0.2-0.1-0.5-0.1-1.1c-0.3,0.5-0.9,1.2-2.3,1.2
				c-1.7,0-2.5-1.1-2.5-2.2c0-1.6,1.3-2.4,3.5-2.4c0.6,0,1,0,1.3,0v-0.7c0-0.7-0.2-1.6-1.8-1.6c-1.4,0-1.6,0.7-1.7,1.3h-1
				c0.1-0.9,0.6-2.1,2.7-2.1c1.7,0,2.7,0.7,2.7,2.4V510.2z M192.2,508c-0.3,0-0.9,0-1.3,0c-1.6,0-2.5,0.4-2.5,1.6
				c0,0.9,0.6,1.4,1.6,1.4c1.9,0,2.2-1.3,2.2-2.8V508z"/>
			<path class="st6" d="M201.1,509.4c-0.3,1.3-1.2,2.4-2.9,2.4c-1.9,0-3.2-1.4-3.2-3.8c0-2,1.1-3.9,3.3-3.9c2,0,2.7,1.4,2.8,2.4h-1
				c-0.2-0.8-0.7-1.5-1.9-1.5c-1.4,0-2.3,1.2-2.3,3c0,1.7,0.8,3,2.2,3c1,0,1.6-0.5,1.9-1.5h1.1V509.4z"/>
			<path class="st6" d="M201.7,504.3h1.3v-2.2h1v2.2h1.7v0.8H204v4.6c0,0.8,0.2,1.2,0.9,1.2c0.2,0,0.5,0,0.7-0.1v0.8
				c-0.3,0.1-0.7,0.1-1,0.1c-1,0-1.5-0.5-1.5-1.7v-4.9h-1.3L201.7,504.3L201.7,504.3z"/>
			<path class="st6" d="M218.9,508.8c-0.5,1.7-1.7,2.9-3.9,2.9c-3,0-4.5-2.3-4.5-5.2c0-2.8,1.5-5.3,4.5-5.3c2.3,0,3.6,1.3,3.9,3h-1
				c-0.4-1.2-1.2-2.1-2.9-2.1c-2.4,0-3.4,2.2-3.4,4.3c0,2.1,1,4.3,3.5,4.3c1.6,0,2.4-0.9,2.8-2h1V508.8z"/>
			<path class="st6" d="M221.1,508.1c0,1.7,0.9,2.8,2.2,2.8s1.7-0.7,2-1.3h1c-0.3,1-1.1,2.1-3,2.1c-2.3,0-3.2-1.9-3.2-3.8
				c0-2.1,1.1-3.9,3.3-3.9c2.3,0,3.1,1.9,3.1,3.4c0,0.2,0,0.4,0,0.6L221.1,508.1L221.1,508.1z M225.5,507.4c0-1.3-0.7-2.4-2.1-2.4
				c-1.4,0-2,1-2.2,2.4H225.5z"/>
			<path class="st6" d="M228.2,506.2c0-0.6,0-1.3,0-1.8h1c0,0.2,0,1.1,0,1.3c0.3-0.7,0.9-1.5,2.4-1.5c1.3,0,2.5,0.8,2.5,2.8v4.7h-1
				V507c0-1.2-0.5-2-1.7-2c-1.6,0-2.2,1.3-2.2,2.8v3.8h-1V506.2z"/>
			<path class="st6" d="M235.3,504.3h1.3v-2.2h1v2.2h1.7v0.8h-1.7v4.6c0,0.8,0.2,1.2,0.9,1.2c0.2,0,0.5,0,0.7-0.1v0.8
				c-0.3,0.1-0.7,0.1-1,0.1c-1,0-1.5-0.5-1.5-1.7v-4.9h-1.3L235.3,504.3L235.3,504.3z"/>
			<path class="st6" d="M241.1,508.1c0,1.7,0.9,2.8,2.2,2.8s1.7-0.7,2-1.3h1c-0.3,1-1.1,2.1-3,2.1c-2.3,0-3.2-1.9-3.2-3.8
				c0-2.1,1.1-3.9,3.3-3.9c2.3,0,3.1,1.9,3.1,3.4c0,0.2,0,0.4,0,0.6L241.1,508.1L241.1,508.1z M245.4,507.4c0-1.3-0.7-2.4-2.1-2.4
				c-1.4,0-2,1-2.2,2.4H245.4z"/>
			<path class="st6" d="M248.2,506.3c0-1.1,0-1.7,0-2h1c0,0.2,0,0.7,0,1.6c0.4-1.1,1.3-1.7,2.5-1.8v1c-1.5,0.1-2.5,1-2.5,2.8v3.7h-1
				V506.3z"/>
			<path class="st6" d="M256.8,500.9h1v1.5h-1V500.9z M256.8,504.3h1v7.3h-1V504.3z"/>
			<path class="st6" d="M260.1,506.2c0-0.6,0-1.3,0-1.8h1c0,0.2,0,1.1,0,1.3c0.3-0.7,0.9-1.5,2.4-1.5c1.3,0,2.5,0.8,2.5,2.8v4.7h-1
				V507c0-1.2-0.5-2-1.7-2c-1.6,0-2.2,1.3-2.2,2.8v3.8h-1L260.1,506.2L260.1,506.2z"/>
			<path class="st6" d="M50.7,534.6L50.7,534.6c0-1.3,1-2.8,2.9-4.3c1.6-1.2,2-1.6,2-2.8c0-1-0.6-1.8-1.8-1.8s-1.9,0.6-2.1,1.9h-1
				c0.2-1.6,1.2-2.8,3.1-2.8c2,0,2.9,1.4,2.9,2.7c0,1.5-0.6,2-2.4,3.4c-1.4,1.1-2.2,1.9-2.4,2.8H57l-0.2,0.9L50.7,534.6L50.7,534.6z
				"/>
			<path class="st6" d="M64.7,529.7c0,2.3-0.6,5-3.2,5c-2.6,0-3.2-2.6-3.2-5s0.7-5,3.3-5C64.1,524.8,64.7,527.3,64.7,529.7z
				 M59.3,529.8c0,1.8,0.4,4.1,2.2,4.1s2.2-2.1,2.2-4.2c0-1.8-0.4-4-2.1-4C59.7,525.7,59.3,527.7,59.3,529.8z"/>
			<path class="st6" d="M68.1,534.6v-8.4c-0.5,0.4-1.5,0.9-2.1,1v-0.8c0.7-0.2,1.6-0.8,2.3-1.4h0.8v9.7L68.1,534.6L68.1,534.6z"/>
			<path class="st6" d="M77.1,525v0.9c-1.7,2.3-3.3,5.9-3.8,8.7h-1c0.5-2.7,2.2-6.5,3.8-8.7H71V525H77.1z"/>
			<path class="st6" d="M78.3,534.6v-2h1v2H78.3z"/>
			<path class="st6" d="M94.1,530c0-1.9,0-3.9,0.1-4.9l0,0c-0.4,1.5-2.3,6.2-3.5,9.4h-1c-0.9-2.5-2.9-7.8-3.3-9.4l0,0
				c0.1,1.2,0.1,3.5,0.1,5.2v4.2h-1v-10.2h1.6c1.3,3.3,2.9,7.7,3.3,8.9l0,0c0.2-0.8,2.1-5.7,3.4-8.9h1.5v10.2h-1V530H94.1z"/>
			<path class="st6" d="M97.6,523.8h1v1.5h-1V523.8z M97.6,527.2h1v7.3h-1V527.2z"/>
			<path class="st6" d="M106.1,533.1c0,0.7,0.1,1.3,0.1,1.5h-0.9c-0.1-0.2-0.1-0.5-0.1-1.1c-0.3,0.5-0.9,1.2-2.3,1.2
				c-1.7,0-2.5-1.1-2.5-2.2c0-1.6,1.3-2.4,3.5-2.4c0.6,0,1,0,1.3,0v-0.7c0-0.7-0.2-1.6-1.8-1.6c-1.4,0-1.6,0.7-1.7,1.3h-1
				c0.1-0.9,0.6-2.1,2.7-2.1c1.7,0,2.7,0.7,2.7,2.4C106.1,529.4,106.1,533.1,106.1,533.1z M105.2,530.9c-0.3,0-0.9,0-1.3,0
				c-1.6,0-2.5,0.4-2.5,1.6c0,0.9,0.6,1.4,1.6,1.4c1.9,0,2.2-1.3,2.2-2.8C105.2,531.1,105.2,530.9,105.2,530.9z"/>
			<path class="st6" d="M108.4,529.1c0-0.6,0-1.3,0-1.9h0.9c0,0.2,0,0.8,0,1.2c0.3-0.7,1-1.4,2.2-1.4c1,0,1.8,0.5,2.1,1.4
				c0.4-0.7,1.1-1.4,2.4-1.4c1.2,0,2.3,0.7,2.3,2.7v4.8h-1v-4.7c0-0.9-0.3-1.9-1.6-1.9c-1.3,0-1.9,1-1.9,2.4v4.2h-1v-4.7
				c0-1-0.3-1.9-1.6-1.9c-1.3,0-1.9,1.1-1.9,2.6v4h-1L108.4,529.1L108.4,529.1z"/>
			<path class="st6" d="M120.6,523.8h1v1.5h-1V523.8z M120.6,527.2h1v7.3h-1V527.2z"/>
			<path class="st6" d="M127.7,523.8h1v1.5h-1V523.8z M127.7,527.2h1v7.3h-1V527.2z"/>
			<path class="st6" d="M131.2,532.5c0.2,0.9,0.9,1.4,2,1.4c1.2,0,1.7-0.5,1.7-1.3s-0.3-1.1-1.9-1.5c-2-0.5-2.4-1.1-2.4-2.1
				s0.8-2,2.5-2c1.8,0,2.6,1.1,2.7,2.1h-1c-0.1-0.6-0.5-1.3-1.7-1.3s-1.5,0.6-1.5,1.1c0,0.6,0.3,0.9,1.7,1.3
				c2.1,0.5,2.6,1.2,2.6,2.3c0,1.3-1.1,2.2-2.7,2.2c-1.8,0-2.7-0.9-2.9-2.2H131.2z"/>
			<path class="st6" d="M141.6,532.5c0.2,0.9,0.9,1.4,2,1.4c1.2,0,1.7-0.5,1.7-1.3s-0.3-1.1-1.9-1.5c-2-0.5-2.4-1.1-2.4-2.1
				s0.8-2,2.5-2c1.8,0,2.6,1.1,2.7,2.1h-1c-0.1-0.6-0.5-1.3-1.7-1.3s-1.5,0.6-1.5,1.1c0,0.6,0.3,0.9,1.7,1.3
				c2.1,0.5,2.6,1.2,2.6,2.3c0,1.3-1.1,2.2-2.7,2.2c-1.8,0-2.7-0.9-2.9-2.2H141.6z"/>
			<path class="st6" d="M148.4,531c0,1.7,0.9,2.8,2.2,2.8s1.7-0.7,2-1.3h1c-0.3,1-1.1,2.1-3,2.1c-2.3,0-3.2-1.9-3.2-3.8
				c0-2.1,1.1-3.9,3.3-3.9c2.3,0,3.1,1.9,3.1,3.4c0,0.2,0,0.4,0,0.6h-5.4V531z M152.8,530.3c0-1.3-0.7-2.4-2.1-2.4
				c-1.4,0-2,1-2.2,2.4H152.8z"/>
			<path class="st6" d="M155.9,531c0,1.7,0.9,2.8,2.2,2.8s1.7-0.7,2-1.3h1c-0.3,1-1.1,2.1-3,2.1c-2.3,0-3.2-1.9-3.2-3.8
				c0-2.1,1.1-3.9,3.3-3.9c2.3,0,3.1,1.9,3.1,3.4c0,0.2,0,0.4,0,0.6h-5.4V531z M160.2,530.3c0-1.3-0.7-2.4-2.1-2.4
				c-1.4,0-2,1-2.2,2.4H160.2z"/>
			<path class="st6" d="M162.9,523.8h1v1.5h-1V523.8z M162.9,527.2h1v7.3h-1V527.2z"/>
			<path class="st6" d="M166.2,529.1c0-0.6,0-1.3,0-1.8h1c0,0.2,0,1.1,0,1.3c0.3-0.7,0.9-1.5,2.4-1.5c1.3,0,2.5,0.8,2.5,2.8v4.7h-1
				V530c0-1.2-0.5-2-1.7-2c-1.6,0-2.2,1.3-2.2,2.8v3.8h-1V529.1z"/>
			<path class="st6" d="M180.1,534c0,2.4-1,3.6-3.3,3.6c-2.1,0-2.8-1.2-3-2.2h1c0.2,0.9,1,1.4,2,1.4c1.8,0,2.3-1.2,2.3-2.9v-0.7
				c-0.4,0.9-1.1,1.4-2.4,1.4c-1.8,0-3-1.4-3-3.6c0-2.4,1.4-3.8,3.2-3.8c1.5,0,2.1,0.7,2.3,1.2c0-0.4,0-0.9,0.1-1.1h0.9
				c0,0.3,0,1.4,0,2.1v4.6H180.1z M174.8,530.9c0,1.7,0.9,2.8,2.2,2.8c1.7,0,2.2-1.1,2.2-2.9c0-1.8-0.5-2.8-2.2-2.8
				C175.5,527.9,174.8,529.2,174.8,530.9z"/>
			<path class="st6" d="M191.4,533.1c0,0.7,0.1,1.3,0.1,1.5h-0.9c-0.1-0.2-0.1-0.5-0.1-1.1c-0.3,0.5-0.9,1.2-2.3,1.2
				c-1.7,0-2.5-1.1-2.5-2.2c0-1.6,1.3-2.4,3.5-2.4c0.6,0,1,0,1.3,0v-0.7c0-0.7-0.2-1.6-1.8-1.6c-1.4,0-1.6,0.7-1.7,1.3h-1
				c0.1-0.9,0.6-2.1,2.7-2.1c1.7,0,2.7,0.7,2.7,2.4V533.1z M190.4,530.9c-0.3,0-0.9,0-1.3,0c-1.6,0-2.5,0.4-2.5,1.6
				c0,0.9,0.6,1.4,1.6,1.4c1.9,0,2.2-1.3,2.2-2.8V530.9z"/>
			<path class="st6" d="M203.3,523.8v8.6c0,0.7,0,1.4,0,2.1h-0.9c0-0.2-0.1-0.8-0.1-1.1c-0.4,0.8-1.2,1.3-2.4,1.3
				c-1.9,0-3.1-1.5-3.1-3.8s1.2-3.9,3.3-3.9c1.4,0,2,0.6,2.2,1v-4.2L203.3,523.8L203.3,523.8z M197.9,530.9c0,1.9,1,2.9,2.2,2.9
				c1.8,0,2.3-1.3,2.3-3.1s-0.4-2.8-2.2-2.8C198.8,527.9,197.9,529,197.9,530.9z"/>
			<path class="st6" d="M206,531c0,1.7,0.9,2.8,2.2,2.8s1.7-0.7,2-1.3h1c-0.3,1-1.1,2.1-3,2.1c-2.3,0-3.2-1.9-3.2-3.8
				c0-2.1,1.1-3.9,3.3-3.9c2.3,0,3.1,1.9,3.1,3.4c0,0.2,0,0.4,0,0.6H206V531z M210.4,530.3c0-1.3-0.7-2.4-2.1-2.4
				c-1.4,0-2,1-2.2,2.4H210.4z"/>
			<path class="st6" d="M218.6,532.4c-0.3,1.3-1.2,2.4-2.9,2.4c-1.9,0-3.2-1.4-3.2-3.8c0-2,1.1-3.9,3.3-3.9c2,0,2.7,1.4,2.8,2.4h-1
				c-0.2-0.8-0.7-1.5-1.9-1.5c-1.4,0-2.3,1.2-2.3,3c0,1.7,0.8,3,2.2,3c1,0,1.6-0.5,1.9-1.5h1.1V532.4z"/>
			<path class="st6" d="M220.3,529.2c0-1.1,0-1.7,0-2h1c0,0.2,0,0.7,0,1.6c0.4-1.1,1.3-1.7,2.5-1.8v1c-1.5,0.1-2.5,1-2.5,2.8v3.7h-1
				V529.2z"/>
			<path class="st6" d="M225.6,531c0,1.7,0.9,2.8,2.2,2.8s1.7-0.7,2-1.3h1c-0.3,1-1.1,2.1-3,2.1c-2.3,0-3.2-1.9-3.2-3.8
				c0-2.1,1.1-3.9,3.3-3.9c2.3,0,3.1,1.9,3.1,3.4c0,0.2,0,0.4,0,0.6h-5.4V531z M229.9,530.3c0-1.3-0.7-2.4-2.1-2.4
				c-1.4,0-2,1-2.2,2.4H229.9z"/>
			<path class="st6" d="M237.9,533.1c0,0.7,0.1,1.3,0.1,1.5h-1c-0.1-0.2-0.1-0.5-0.1-1.1c-0.3,0.5-0.9,1.2-2.3,1.2
				c-1.7,0-2.5-1.1-2.5-2.2c0-1.6,1.3-2.4,3.5-2.4c0.6,0,1,0,1.3,0v-0.7c0-0.7-0.2-1.6-1.8-1.6c-1.4,0-1.6,0.7-1.7,1.3h-1
				c0.1-0.9,0.6-2.1,2.7-2.1c1.7,0,2.7,0.7,2.7,2.4v3.7H237.9z M236.9,530.9c-0.3,0-0.9,0-1.3,0c-1.6,0-2.5,0.4-2.5,1.6
				c0,0.9,0.6,1.4,1.6,1.4c1.9,0,2.2-1.3,2.2-2.8V530.9z"/>
			<path class="st6" d="M240.5,532.5c0.2,0.9,0.9,1.4,2,1.4c1.2,0,1.7-0.5,1.7-1.3s-0.3-1.1-1.9-1.5c-2-0.5-2.4-1.1-2.4-2.1
				s0.8-2,2.5-2c1.8,0,2.6,1.1,2.7,2.1h-1c-0.1-0.6-0.5-1.3-1.7-1.3s-1.5,0.6-1.5,1.1c0,0.6,0.3,0.9,1.7,1.3
				c2.1,0.5,2.6,1.2,2.6,2.3c0,1.3-1.1,2.2-2.7,2.2c-1.8,0-2.7-0.9-2.9-2.2H240.5z"/>
			<path class="st6" d="M247.3,531c0,1.7,0.9,2.8,2.2,2.8s1.7-0.7,2-1.3h1c-0.3,1-1.1,2.1-3,2.1c-2.3,0-3.2-1.9-3.2-3.8
				c0-2.1,1.1-3.9,3.3-3.9c2.3,0,3.1,1.9,3.1,3.4c0,0.2,0,0.4,0,0.6h-5.4V531z M251.6,530.3c0-1.3-0.7-2.4-2.1-2.4
				c-1.4,0-2,1-2.2,2.4H251.6z"/>
			<path class="st6" d="M258.1,523.8h1v1.5h-1V523.8z M258.1,527.2h1v7.3h-1V527.2z"/>
			<path class="st6" d="M261.3,529.1c0-0.6,0-1.3,0-1.8h1c0,0.2,0,1.1,0,1.3c0.3-0.7,0.9-1.5,2.4-1.5c1.3,0,2.5,0.8,2.5,2.8v4.7h-1
				V530c0-1.2-0.5-2-1.7-2c-1.6,0-2.2,1.3-2.2,2.8v3.8h-1L261.3,529.1L261.3,529.1z"/>
			<path class="st6" d="M51.4,555.4c0.2,0.9,0.9,1.4,2,1.4c1.2,0,1.7-0.5,1.7-1.3s-0.3-1.1-1.9-1.5c-2-0.5-2.4-1.1-2.4-2.1
				s0.8-2,2.5-2c1.8,0,2.6,1.1,2.7,2.1h-1c-0.1-0.6-0.5-1.3-1.7-1.3s-1.5,0.6-1.5,1.1c0,0.6,0.3,0.9,1.7,1.3
				c2.1,0.5,2.6,1.2,2.6,2.3c0,1.3-1.1,2.2-2.7,2.2c-1.8,0-2.7-0.9-2.9-2.2H51.4z"/>
			<path class="st6" d="M56.8,550.1h1.3v-2.2h1v2.2h1.7v0.8h-1.7v4.6c0,0.8,0.2,1.2,0.9,1.2c0.2,0,0.5,0,0.7-0.1v0.8
				c-0.3,0.1-0.7,0.1-1,0.1c-1,0-1.5-0.5-1.5-1.7V551h-1.3v-0.9H56.8z"/>
			<path class="st6" d="M62.2,552.1c0-1.1,0-1.7,0-2h1c0,0.2,0,0.7,0,1.6c0.4-1.1,1.3-1.7,2.5-1.8v1c-1.5,0.1-2.5,1-2.5,2.8v3.7h-1
				C62.2,557.4,62.2,552.1,62.2,552.1z"/>
			<path class="st6" d="M72.4,556c0,0.7,0.1,1.3,0.1,1.5h-0.9c-0.1-0.2-0.1-0.5-0.1-1.1c-0.3,0.5-0.9,1.2-2.3,1.2
				c-1.7,0-2.5-1.1-2.5-2.2c0-1.6,1.3-2.4,3.5-2.4c0.6,0,1,0,1.3,0v-0.7c0-0.7-0.2-1.6-1.8-1.6c-1.4,0-1.6,0.7-1.7,1.3h-1
				c0.1-0.9,0.6-2.1,2.7-2.1c1.7,0,2.7,0.7,2.7,2.4C72.4,552.3,72.4,556,72.4,556z M71.4,553.8c-0.3,0-0.9,0-1.3,0
				c-1.6,0-2.5,0.4-2.5,1.6c0,0.9,0.6,1.4,1.6,1.4c1.9,0,2.2-1.3,2.2-2.8C71.4,554,71.4,553.8,71.4,553.8z"/>
			<path class="st6" d="M74.8,550.1c1.3,3.9,2,5.7,2.2,6.5l0,0c0.3-0.9,0.8-2.6,2.1-6.5h1l-2.7,7.7c-0.8,2.2-1.3,2.7-2.7,2.7
				c-0.2,0-0.5,0-0.7,0v-0.9c0.2,0,0.4,0,0.6,0c1,0,1.3-0.5,1.8-1.8l-2.8-7.6h1.2V550.1z"/>
			<path class="st6" d="M91.1,546.7v8.6c0,0.7,0,1.4,0,2.1h-0.9c0-0.2-0.1-0.8-0.1-1.1c-0.4,0.8-1.2,1.3-2.4,1.3
				c-1.9,0-3.1-1.5-3.1-3.8s1.2-3.9,3.3-3.9c1.4,0,2,0.6,2.2,1v-4.2L91.1,546.7L91.1,546.7z M85.7,553.9c0,1.9,1,2.9,2.2,2.9
				c1.8,0,2.3-1.3,2.3-3.1s-0.4-2.8-2.2-2.8C86.6,550.8,85.7,551.9,85.7,553.9z"/>
			<path class="st6" d="M99.5,553.8c0,2.1-1.2,3.9-3.4,3.9c-2,0-3.3-1.6-3.3-3.8c0-2.1,1.2-3.8,3.4-3.8
				C98.2,550,99.5,551.5,99.5,553.8z M93.9,553.8c0,1.7,0.9,3,2.3,3c1.5,0,2.3-1.2,2.3-3c0-1.7-0.8-3-2.3-3
				C94.6,550.8,93.9,552.1,93.9,553.8z"/>
			<path class="st6" d="M107.1,556.9c0,2.4-1,3.6-3.3,3.6c-2.1,0-2.8-1.2-3-2.2h1c0.2,0.9,1,1.4,2,1.4c1.8,0,2.3-1.2,2.3-2.9v-0.7
				c-0.4,0.9-1.1,1.4-2.4,1.4c-1.8,0-3-1.4-3-3.6c0-2.4,1.4-3.8,3.2-3.8c1.5,0,2.1,0.7,2.3,1.2c0-0.4,0-0.9,0.1-1.1h0.9
				c0,0.3,0,1.4,0,2.1L107.1,556.9L107.1,556.9z M101.7,553.8c0,1.7,0.9,2.8,2.2,2.8c1.7,0,2.2-1.1,2.2-2.9c0-1.8-0.5-2.8-2.2-2.8
				C102.4,550.8,101.7,552.1,101.7,553.8z"/>
			<path class="st6" d="M118.7,555.3c-0.3,1.3-1.2,2.4-2.9,2.4c-1.9,0-3.2-1.4-3.2-3.8c0-2,1.1-3.9,3.3-3.9c2,0,2.7,1.4,2.8,2.4h-1
				c-0.2-0.8-0.7-1.5-1.9-1.5c-1.4,0-2.3,1.2-2.3,3c0,1.7,0.8,3,2.2,3c1,0,1.6-0.5,1.9-1.5h1.1V555.3z"/>
			<path class="st6" d="M126.4,553.8c0,2.1-1.2,3.9-3.4,3.9c-2,0-3.3-1.6-3.3-3.8c0-2.1,1.2-3.8,3.4-3.8
				C125.1,550,126.4,551.5,126.4,553.8z M120.8,553.8c0,1.7,0.9,3,2.3,3c1.5,0,2.3-1.2,2.3-3c0-1.7-0.8-3-2.3-3
				C121.5,550.8,120.8,552.1,120.8,553.8z"/>
			<path class="st6" d="M133.8,555.3c0,0.7,0,1.8,0,2.1h-0.9c0-0.2,0-0.7,0-1.2c-0.3,0.8-1.1,1.4-2.3,1.4c-1.1,0-2.4-0.5-2.4-2.7
				v-4.8h1v4.6c0,1,0.3,2,1.7,2c1.5,0,2.1-0.8,2.1-2.8v-3.8h1v5.2H133.8z"/>
			<path class="st6" d="M136.1,552c0-0.6,0-1.3,0-1.8h1c0,0.2,0,1.1,0,1.3c0.3-0.7,0.9-1.5,2.4-1.5c1.3,0,2.5,0.8,2.5,2.8v4.7h-1
				v-4.6c0-1.2-0.5-2-1.7-2c-1.6,0-2.2,1.3-2.2,2.8v3.8h-1V552z"/>
			<path class="st6" d="M143.2,550.1h1.3v-2.2h1v2.2h1.7v0.8h-1.7v4.6c0,0.8,0.2,1.2,0.9,1.2c0.2,0,0.5,0,0.7-0.1v0.8
				c-0.3,0.1-0.7,0.1-1,0.1c-1,0-1.5-0.5-1.5-1.7V551h-1.3L143.2,550.1L143.2,550.1z"/>
			<path class="st6" d="M148.3,557.5v-2h1v2H148.3z"/>
			<path class="st6" d="M157.1,557.5l-2.8-10.2h1.1c0.7,2.8,2.1,7.8,2.3,9l0,0c0.2-1.1,1.8-6.4,2.5-9h1.1c0.6,2.4,2.2,8,2.4,9l0,0
				c0.3-1.6,1.9-6.7,2.5-9h1l-3,10.2H163c-0.6-2.4-2.1-7.8-2.3-8.8l0,0c-0.3,1.4-1.7,6.4-2.4,8.8H157.1z"/>
			<path class="st6" d="M169.6,546.7v4.6c0.4-0.7,1.1-1.3,2.4-1.3c1.1,0,2.5,0.6,2.5,2.8v4.7h-1V553c0-1.4-0.6-2.1-1.8-2.1
				c-1.4,0-2.1,0.9-2.1,2.6v4.1h-1v-10.7h1V546.7z"/>
			<path class="st6" d="M182,556c0,0.7,0.1,1.3,0.1,1.5h-0.9c-0.1-0.2-0.1-0.5-0.1-1.1c-0.3,0.5-0.9,1.2-2.3,1.2
				c-1.7,0-2.5-1.1-2.5-2.2c0-1.6,1.3-2.4,3.5-2.4c0.6,0,1,0,1.3,0v-0.7c0-0.7-0.2-1.6-1.8-1.6c-1.4,0-1.6,0.7-1.7,1.3h-1
				c0.1-0.9,0.6-2.1,2.7-2.1c1.7,0,2.7,0.7,2.7,2.4V556z M181,553.8c-0.3,0-0.9,0-1.3,0c-1.6,0-2.5,0.4-2.5,1.6
				c0,0.9,0.6,1.4,1.6,1.4c1.9,0,2.2-1.3,2.2-2.8V553.8z"/>
			<path class="st6" d="M183.3,550.1h1.3v-2.2h1v2.2h1.7v0.8h-1.7v4.6c0,0.8,0.2,1.2,0.9,1.2c0.2,0,0.5,0,0.7-0.1v0.8
				c-0.3,0.1-0.7,0.1-1,0.1c-1,0-1.5-0.5-1.5-1.7V551h-1.3L183.3,550.1L183.3,550.1z"/>
			<path class="st6" d="M192.4,546.7h1v1.5h-1V546.7z M192.4,550.1h1v7.3h-1V550.1z"/>
			<path class="st6" d="M196,555.4c0.2,0.9,0.9,1.4,2,1.4c1.2,0,1.7-0.5,1.7-1.3s-0.3-1.1-1.9-1.5c-2-0.5-2.4-1.1-2.4-2.1
				s0.8-2,2.5-2c1.8,0,2.6,1.1,2.7,2.1h-1c-0.1-0.6-0.5-1.3-1.7-1.3s-1.5,0.6-1.5,1.1c0,0.6,0.3,0.9,1.7,1.3
				c2.1,0.5,2.6,1.2,2.6,2.3c0,1.3-1.1,2.2-2.7,2.2c-1.8,0-2.7-0.9-2.9-2.2H196z"/>
			<path class="st6" d="M211.7,555.3c-0.3,1.3-1.2,2.4-2.9,2.4c-1.9,0-3.2-1.4-3.2-3.8c0-2,1.1-3.9,3.3-3.9c2,0,2.7,1.4,2.8,2.4h-1
				c-0.2-0.8-0.7-1.5-1.9-1.5c-1.4,0-2.3,1.2-2.3,3c0,1.7,0.8,3,2.2,3c1,0,1.6-0.5,1.9-1.5h1.1V555.3z"/>
			<path class="st6" d="M218.6,556c0,0.7,0.1,1.3,0.1,1.5h-0.9c-0.1-0.2-0.1-0.5-0.1-1.1c-0.3,0.5-0.9,1.2-2.3,1.2
				c-1.7,0-2.5-1.1-2.5-2.2c0-1.6,1.3-2.4,3.5-2.4c0.6,0,1,0,1.3,0v-0.7c0-0.7-0.2-1.6-1.8-1.6c-1.4,0-1.6,0.7-1.7,1.3h-1
				c0.1-0.9,0.6-2.1,2.7-2.1c1.7,0,2.7,0.7,2.7,2.4V556z M217.6,553.8c-0.3,0-0.9,0-1.3,0c-1.6,0-2.5,0.4-2.5,1.6
				c0,0.9,0.6,1.4,1.6,1.4c1.9,0,2.2-1.3,2.2-2.8V553.8z"/>
			<path class="st6" d="M226.5,555.3c0,0.7,0,1.8,0,2.1h-0.9c0-0.2,0-0.7,0-1.2c-0.3,0.8-1.1,1.4-2.3,1.4c-1.1,0-2.4-0.5-2.4-2.7
				v-4.8h1v4.6c0,1,0.3,2,1.7,2c1.5,0,2.1-0.8,2.1-2.8v-3.8h1v5.2H226.5z"/>
			<path class="st6" d="M229.1,555.4c0.2,0.9,0.9,1.4,2,1.4c1.2,0,1.7-0.5,1.7-1.3s-0.3-1.1-1.9-1.5c-2-0.5-2.4-1.1-2.4-2.1
				s0.8-2,2.5-2c1.8,0,2.6,1.1,2.7,2.1h-1c-0.1-0.6-0.5-1.3-1.7-1.3s-1.5,0.6-1.5,1.1c0,0.6,0.3,0.9,1.7,1.3
				c2.1,0.5,2.6,1.2,2.6,2.3c0,1.3-1.1,2.2-2.7,2.2c-1.8,0-2.7-0.9-2.9-2.2H229.1z"/>
			<path class="st6" d="M235.5,546.7h1v1.5h-1V546.7z M235.5,550.1h1v7.3h-1V550.1z"/>
			<path class="st6" d="M238.8,552c0-0.6,0-1.3,0-1.8h1c0,0.2,0,1.1,0,1.3c0.3-0.7,0.9-1.5,2.4-1.5c1.3,0,2.5,0.8,2.5,2.8v4.7h-1
				v-4.6c0-1.2-0.5-2-1.7-2c-1.6,0-2.2,1.3-2.2,2.8v3.8h-1V552z"/>
			<path class="st6" d="M252.7,556.9c0,2.4-1,3.6-3.3,3.6c-2.1,0-2.8-1.2-3-2.2h1c0.2,0.9,1,1.4,2,1.4c1.8,0,2.3-1.2,2.3-2.9v-0.7
				c-0.4,0.9-1.1,1.4-2.4,1.4c-1.8,0-3-1.4-3-3.6c0-2.4,1.4-3.8,3.2-3.8c1.5,0,2.1,0.7,2.3,1.2c0-0.4,0-0.9,0.1-1.1h0.9
				c0,0.3,0,1.4,0,2.1v4.6H252.7z M247.4,553.8c0,1.7,0.9,2.8,2.2,2.8c1.7,0,2.2-1.1,2.2-2.9c0-1.8-0.5-2.8-2.2-2.8
				C248.1,550.8,247.4,552.1,247.4,553.8z"/>
			<path class="st6" d="M50.1,573.1h1.3v-2.2h1v2.2h1.7v0.8h-1.7v4.6c0,0.8,0.2,1.2,0.9,1.2c0.2,0,0.5,0,0.7-0.1v0.8
				c-0.3,0.1-0.7,0.1-1,0.1c-1,0-1.5-0.5-1.5-1.7v-4.9h-1.3v-0.8H50.1z"/>
			<path class="st6" d="M56.5,569.7v4.6c0.4-0.7,1.1-1.3,2.4-1.3c1.1,0,2.5,0.6,2.5,2.8v4.7h-1V576c0-1.4-0.6-2.1-1.8-2.1
				c-1.4,0-2.1,0.9-2.1,2.6v4.1h-1v-10.7h1V569.7z"/>
			<path class="st6" d="M63.7,569.7h1v1.5h-1C63.7,571.2,63.7,569.7,63.7,569.7z M63.7,573.1h1v7.3h-1
				C63.7,580.4,63.7,573.1,63.7,573.1z"/>
			<path class="st6" d="M67.2,578.3c0.2,0.9,0.9,1.4,2,1.4c1.2,0,1.7-0.5,1.7-1.3s-0.3-1.1-1.9-1.5c-2-0.5-2.4-1.1-2.4-2.1
				s0.8-2,2.5-2c1.8,0,2.6,1.1,2.7,2.1h-1c-0.1-0.6-0.5-1.3-1.7-1.3s-1.5,0.6-1.5,1.1c0,0.6,0.3,0.9,1.7,1.3
				c2.1,0.5,2.6,1.2,2.6,2.3c0,1.3-1.1,2.2-2.7,2.2c-1.8,0-2.7-0.9-2.9-2.2H67.2z"/>
			<path class="st6" d="M83.2,569.7v8.6c0,0.7,0,1.4,0,2.1h-0.9c0-0.2-0.1-0.8-0.1-1.1c-0.4,0.8-1.2,1.3-2.4,1.3
				c-1.9,0-3.1-1.5-3.1-3.8s1.2-3.9,3.3-3.9c1.4,0,2,0.6,2.2,1v-4.2L83.2,569.7L83.2,569.7z M77.8,576.8c0,1.9,1,2.9,2.2,2.9
				c1.8,0,2.3-1.3,2.3-3.1s-0.4-2.8-2.2-2.8C78.7,573.7,77.8,574.8,77.8,576.8z"/>
			<path class="st6" d="M86,576.9c0,1.7,0.9,2.8,2.2,2.8c1.3,0,1.7-0.7,2-1.3h1c-0.3,1-1.1,2.1-3,2.1c-2.3,0-3.2-1.9-3.2-3.8
				c0-2.1,1.1-3.9,3.3-3.9c2.3,0,3.1,1.9,3.1,3.4c0,0.2,0,0.4,0,0.6H86V576.9z M90.3,576.1c0-1.3-0.7-2.4-2.1-2.4s-2,1-2.2,2.4H90.3
				z"/>
			<path class="st6" d="M98.6,578.2c-0.3,1.3-1.2,2.4-2.9,2.4c-1.9,0-3.2-1.4-3.2-3.8c0-2,1.1-3.9,3.3-3.9c2,0,2.7,1.4,2.8,2.4h-1
				c-0.2-0.8-0.7-1.5-1.9-1.5c-1.4,0-2.3,1.2-2.3,3c0,1.7,0.8,3,2.2,3c1,0,1.6-0.5,1.9-1.5h1.1V578.2z"/>
			<path class="st6" d="M100.2,580.4v-10.7h1v10.7H100.2z"/>
			<path class="st6" d="M103.5,569.7h1v1.5h-1V569.7z M103.5,573.1h1v7.3h-1V573.1z"/>
			<path class="st6" d="M106.7,574.9c0-0.6,0-1.3,0-1.8h1c0,0.2,0,1.1,0,1.3c0.3-0.7,0.9-1.5,2.4-1.5c1.3,0,2.5,0.8,2.5,2.8v4.7h-1
				v-4.6c0-1.2-0.5-2-1.7-2c-1.6,0-2.2,1.3-2.2,2.8v3.8h-1C106.7,580.4,106.7,574.9,106.7,574.9z"/>
			<path class="st6" d="M115.3,576.9c0,1.7,0.9,2.8,2.2,2.8c1.3,0,1.7-0.7,2-1.3h1c-0.3,1-1.1,2.1-3,2.1c-2.3,0-3.2-1.9-3.2-3.8
				c0-2.1,1.1-3.9,3.3-3.9c2.3,0,3.1,1.9,3.1,3.4c0,0.2,0,0.4,0,0.6h-5.4V576.9z M119.6,576.1c0-1.3-0.7-2.4-2.1-2.4s-2,1-2.2,2.4
				H119.6z"/>
			<path class="st6" d="M124.2,577.4v-0.2c0-0.7,0.2-1.4,1.4-2.5c0.9-0.8,1.1-1.4,1.1-2.1c0-0.8-0.5-1.7-1.7-1.7s-1.8,0.7-1.9,1.8
				h-1c0-0.8,0.6-2.7,2.9-2.7c2,0,2.7,1.5,2.7,2.6s-0.3,1.7-1.4,2.7c-0.8,0.7-1,1.2-1,1.9v0.1h-1.1V577.4z M124.2,580.4v-1.9h1v1.9
				H124.2z"/>
		</g>
	</g>
</g>
</svg>
